<svg id="Layer_1" data-name="Layer 1" xmlns="http://www.w3.org/2000/svg" viewBox="0 0 65.54 67.39"><defs><style>.cls-1{fill:#8b95f4;}.cls-2{fill:none;stroke:#293cff;stroke-linecap:round;stroke-linejoin:round;stroke-width:5.5px;}</style></defs><path class="cls-1" d="M16.94,8.61l3.79,4.67,6.62-2.78V2.75h5.44v16.9c-.21,0-1.42,0-1.63,0-6.08,0-12.58,5.86-12.58,13.74s6.5,14.8,12.58,14.8c.21,0,2.09.64,2.3.63V65.31l-5.05-.67v-9h-4l-2.19-2.19-6.25,6.25L7.79,51.58,14,45.33l-2.89-2.89V39.72H3.62V28.19h7.53V23.73l2.3-2.3L8.79,16.76l8.15-8.15"/><path class="cls-1" d="M33.48,18l-.37,0v8.74h.14a2.9,2.9,0,0,1,0,5.79l-.14,0v9.22h.29C36.51,41.76,39,43,39,44.57c0,.91-.86,1.71-2.19,2.23A14.59,14.59,0,0,0,33.48,18Z"/><path class="cls-2" d="M13.17,45.33,6.92,51.58l8.14,8.15,6.26-6.25,6.22,2.19v9H39.06v-9l5.23-2.08,5.19,5.19,8.15-8.15-5.19-5.19,3-5.46h7.35V28.45H55.44l-2.37-7.09,5.56-5.55L50.48,7.66l-5.56,5.55L38,10.5V2.75H26.48V10.5l-5.75,2.78L16.06,8.61,7.92,16.76l4.66,4.67-2.3,6.76H2.75V39.72h7.53S13.17,44.62,13.17,45.33Z"/><circle class="cls-2" cx="33.09" cy="33.11" r="15.62"/><path class="cls-2" d="M32.49,17.49A15.62,15.62,0,1,0,48.11,33.11,15.62,15.62,0,0,0,32.49,17.49Zm.43,7.4c2,0,3.67,2,3.67,4.5s-1.65,4.49-3.67,4.49-3.67-2-3.67-4.49S30.89,24.89,32.92,24.89Zm-7.68,20,2.69-4.76h9.68l3.09,5.15"/></svg>