<svg id="Layer_1" data-name="Layer 1" xmlns="http://www.w3.org/2000/svg" viewBox="0 0 67.19 70.49"><defs><style>.cls-1{fill:#8b95f4;}.cls-2,.cls-3,.cls-4{fill:none;stroke:#293cff;stroke-width:5.5px;}.cls-2{stroke-miterlimit:10;}.cls-3,.cls-4{stroke-linejoin:round;}.cls-4{stroke-linecap:round;}</style></defs><polygon class="cls-1" points="22.77 12.71 29.02 25.37 42.99 27.4 32.88 37.26 35.27 51.17 22.77 44.6 10.27 51.17 12.65 37.26 2.54 27.4 16.52 25.37 22.77 12.71"/><path class="cls-1" d="M42.47,50.19H63.3a0,0,0,0,1,0,0V62a5.18,5.18,0,0,1-5.18,5.18H42.47a0,0,0,0,1,0,0v-17A0,0,0,0,1,42.47,50.19Z"/><circle class="cls-2" cx="42.16" cy="59.4" r="1.43"/><path class="cls-3" d="M56,2.75H30.67a8.46,8.46,0,0,0-8.46,8.46v2.62l.24-.5,6.09,12.34,13.62,2-9.85,9.61,2.32,13.56-12.18-6.4-.24.13V59.28a8.46,8.46,0,0,0,8.46,8.46H56a8.46,8.46,0,0,0,8.46-8.46V11.21A8.46,8.46,0,0,0,56,2.75Z"/><polyline class="cls-4" points="22.2 44.54 10.28 50.81 12.6 37.25 2.75 27.64 16.37 25.67 22.2 11.21"/><line class="cls-4" x1="22.92" y1="50.81" x2="63.94" y2="50.81"/></svg>