<svg id="Layer_1" data-name="Layer 1" xmlns="http://www.w3.org/2000/svg" viewBox="0 0 65.79 70.12"><defs><style>.cls-1{fill:#8b95f4;}.cls-2,.cls-3{fill:none;stroke:#293cff;stroke-miterlimit:10;}.cls-2{stroke-width:5.5px;}.cls-3{stroke-linecap:round;stroke-width:4px;}.cls-4{fill:#293cff;}</style></defs><rect class="cls-1" x="2.47" y="21.8" width="30.45" height="8.3"/><rect class="cls-1" x="31.97" y="49.73" width="30.45" height="8.27"/><path class="cls-2" d="M31.93,54.24V44.13A5.09,5.09,0,0,1,37,39H54V10.73a8,8,0,0,0-8-8H19.82a8,8,0,0,0-8,8v0H28.77a5.09,5.09,0,0,1,5.09,5.09V26a5.09,5.09,0,0,1-5.09,5.09H11.84V59.38a8,8,0,0,0,8,8H46a8,8,0,0,0,8-8v-.05H37A5.09,5.09,0,0,1,31.93,54.24Z"/><path class="cls-2" d="M11.84,31.07h-4A5.09,5.09,0,0,1,2.75,26V15.86a5.09,5.09,0,0,1,5.09-5.09H19.13"/><path class="cls-2" d="M11.84,31.07H28.77A5.09,5.09,0,0,0,33.86,26V15.86a5.09,5.09,0,0,0-5.09-5.09"/><path class="cls-2" d="M54,59.33h4A5.09,5.09,0,0,0,63,54.24V44.13A5.09,5.09,0,0,0,58,39H46.09"/><line class="cls-3" x1="43.85" y1="14.02" x2="43.85" y2="24.25"/><path class="cls-4" d="M45,29.61a1.26,1.26,0,0,1-2.18,0l-2-3.42-2-3.43A1.25,1.25,0,0,1,40,20.88H47.9A1.25,1.25,0,0,1,49,22.76l-2,3.43Z"/><line class="cls-3" x1="21.86" y1="55.98" x2="21.86" y2="45.75"/><path class="cls-4" d="M20.68,40.39a1.26,1.26,0,0,1,2.18,0l2,3.43,2,3.42a1.25,1.25,0,0,1-1.08,1.88H17.81a1.25,1.25,0,0,1-1.08-1.88l2-3.42Z"/><line class="cls-2" x1="3.11" y1="22.16" x2="33.08" y2="22.16"/><line class="cls-2" x1="33.24" y1="50.71" x2="63.21" y2="50.71"/></svg>